#!OML:ASF H:\Pregnant\Project 1\Capture day 1\Session 1\femalepreg.ASF
:FULLY-SPECIFIED
:DEGREES
1382
root 12.4535 6.72292 24.8589 -166.536 -20.5698 189.49
lowerback 45.5073 8.21139 5.49274
upperback 9.98886 8.40579 -5.38037
thorax -8.25464 2.77911 -12.0856
lowerneck 6.05004 25.5737 25.4497
upperneck -2.56703 37.5176 -26.6343
head 8.04273 18.7734 -6.77859
rclavicle -1.18078e-013 9.58142e-014
rhumerus 24.6801 3.25759 -83.7715
rradius 23.1988
rwrist 12.9182
rhand -66.5393 114.004
rfingers 7.12502
rthumb -38.3522 -580.293
lclavicle -1.18078e-013 9.58142e-014
lhumerus 52.6242 -41.8429 42.6546
lradius 32.4775
lwrist 38.3864
lhand -34.4031 -389.154
lfingers 7.12502
lthumb -7.56862 360.691
rfemur -65.01 -48.1233 3.54445
rtibia 147.519
rfoot -40.1012 14.2976
rtoes -31.0265
lfemur -67.9706 56.0509 19.8506
ltibia 151.347
lfoot -309.596 -50.4459
ltoes 33.3863
1383
root 12.4736 6.7325 24.8823 -166.533 -20.6992 189.311
lowerback 45.7101 8.13961 5.53374
upperback 9.99414 8.33354 -5.34565
thorax -8.3171 2.73625 -12.0502
lowerneck 6.05513 25.5853 25.469
upperneck -2.53041 37.5438 -26.6154
head 8.05831 18.7837 -6.76589
rclavicle -3.89618e-014 -5.10877e-014
rhumerus 24.8217 3.36575 -83.5183
rradius 23.2745
rwrist 12.7814
rhand -66.5716 113.625
rfingers 7.12502
rthumb -38.3827 -580.681
lclavicle -3.89618e-014 -5.10877e-014
lhumerus 53.4328 -42.1049 41.5163
lradius 32.5809
lwrist 38.9153
lhand -34.416 -388.199
lfingers 7.12502
lthumb -7.58107 361.646
rfemur -64.3269 -49.7163 2.49263
rtibia 147.533
rfoot -40.9999 14.5202
rtoes -31.2241
lfemur -67.2681 57.14 20.5723
ltibia 151.267
lfoot -309.927 -51.1841
ltoes 33.6877
1384
root 12.4943 6.74248 24.9058 -166.539 -20.8385 189.119
lowerback 45.9262 8.06527 5.56012
upperback 10.0062 8.25053 -5.29889
thorax -8.38018 2.68694 -11.989
lowerneck 6.0585 25.5988 25.4616
upperneck -2.50127 37.5719 -26.6083
head 8.07039 18.796 -6.75422
rclavicle 7.95139e-016 -5.1684e-015
rhumerus 24.9847 3.51136 -83.2408
rradius 23.3396
rwrist 12.6349
rhand -66.6028 113.261
rfingers 7.12502
rthumb -38.4122 -581.053
lclavicle 7.95139e-016 -5.1684e-015
lhumerus 54.1886 -42.3443 40.3863
lradius 32.7199
lwrist 39.4045
lhand -34.4182 -387.191
lfingers 7.12502
lthumb -7.58319 362.653
rfemur -63.5842 -51.2665 1.37683
rtibia 147.543
rfoot -41.8764 14.7602
rtoes -31.4105
lfemur -66.5424 58.22 21.3
ltibia 151.186
lfoot -310.288 -51.9171
ltoes 34.0126
1385
root 12.5157 6.75288 24.9295 -166.556 -20.9846 188.916
lowerback 46.1576 7.98972 5.57352
upperback 10.024 8.15867 -5.24314
thorax -8.44468 2.63215 -11.9072
lowerneck 6.05783 25.6126 25.4342
upperneck -2.47794 37.5995 -26.6128
head 8.08049 18.8088 -6.74416
rclavicle -2.98177e-014 3.18055e-015
rhumerus 25.167 3.67973 -82.9485
rradius 23.3962
rwrist 12.4869
rhand -66.6333 112.901
rfingers 7.12502
rthumb -38.4409 -581.421
lclavicle -2.98177e-014 3.18055e-015
lhumerus 54.9686 -42.5682 39.1947
lradius 32.8804
lwrist 39.8948
lhand -34.4032 -386.09
lfingers 7.12502
lthumb -7.5688 363.755
rfemur -62.7711 -52.7703 0.194942
rtibia 147.552
rfoot -42.7321 15.0065
rtoes -31.5854
lfemur -65.8016 59.2965 22.0449
ltibia 151.104
lfoot -310.65 -52.6378
ltoes 34.3556
1386
root 12.5227 6.84001 24.9099 -166.584 -21.133 188.7
lowerback 46.4079 7.91492 5.57537
upperback 10.0462 8.06025 -5.18243
thorax -8.51147 2.57296 -11.8112
lowerneck 6.05032 25.6249 25.3941
upperneck -2.4588 37.6244 -26.6282
head 8.09015 18.8204 -6.73617
rclavicle -6.32135e-014 2.18663e-014
rhumerus 25.3661 3.85256 -82.6536
rradius 23.4481
rwrist 12.3451
rhand -66.662 112.528
rfingers 7.12502
rthumb -38.468 -581.802
lclavicle -6.32135e-014 2.18663e-014
lhumerus 55.7796 -42.7764 37.9353
lradius 33.0618
lwrist 40.3809
lhand -34.3616 -384.873
lfingers 7.12502
lthumb -7.52862 364.973
rfemur -61.3518 -53.8435 -0.566997
rtibia 146.763
rfoot -43.297 15.0266
rtoes -31.7508
lfemur -64.3574 60.1465 22.4032
ltibia 150.184
lfoot -311.485 -53.2619
ltoes 34.7126
1387
root 12.5456 6.85063 24.9345 -166.621 -21.2796 188.472
lowerback 46.6774 7.84307 5.56601
upperback 10.0721 7.95739 -5.12084
thorax -8.58032 2.51054 -11.7067
lowerneck 6.03346 25.6346 25.349
upperneck -2.44294 37.6446 -26.6545
head 8.10098 18.8296 -6.73079
rclavicle 2.42517e-014 -1.72943e-014
rhumerus 25.5794 4.01224 -82.368
rradius 23.4993
rwrist 12.2153
rhand -66.6888 112.111
rfingers 7.12502
rthumb -38.4932 -582.226
lclavicle 2.42517e-014 -1.72943e-014
lhumerus 56.6273 -42.9679 36.6037
lradius 33.262
lwrist 40.8619
lhand -34.2865 -383.532
lfingers 7.12502
lthumb -7.45616 366.316
rfemur -60.3973 -55.2723 -1.8984
rtibia 146.78
rfoot -44.1273 15.2687
rtoes -31.9068
lfemur -63.5171 61.2299 23.2315
ltibia 150.101
lfoot -311.854 -53.9801
ltoes 35.0763
1388
root 12.5692 6.86185 24.9591 -166.664 -21.4205 188.229
lowerback 46.9632 7.77653 5.54367
upperback 10.1017 7.85179 -5.06085
thorax -8.65003 2.44595 -11.5959
lowerneck 6.00588 25.6408 25.3032
upperneck -2.43141 37.6591 -26.6928
head 8.11364 18.8354 -6.72868
rclavicle 7.15625e-015 7.79236e-014
rhumerus 25.8058 4.14669 -82.1002
rradius 23.5538
rwrist 12.0999
rhand -66.7136 111.612
rfingers 7.12502
rthumb -38.5166 -582.731
lclavicle 7.15625e-015 7.79236e-014
lhumerus 57.5148 -43.1401 35.2001
lradius 33.4766
lwrist 41.3408
lhand -34.1733 -382.077
lfingers 7.12502
lthumb -7.34682 367.775
rfemur -59.3558 -56.6533 -3.31754
rtibia 146.798
rfoot -44.9429 15.4919
rtoes -32.0516
lfemur -62.6175 62.2867 24.0836
ltibia 150.008
lfoot -312.25 -54.6858
ltoes 35.443
1389
root 12.5934 6.87373 24.9835 -166.707 -21.5539 187.972
lowerback 47.2599 7.71717 5.50629
upperback 10.1344 7.74488 -5.00365
thorax -8.71934 2.38017 -11.4797
lowerneck 5.96774 25.643 25.2588
upperneck -2.42657 37.667 -26.7443
head 8.12781 18.8376 -6.73058
rclavicle 5.1684e-015 3.51849e-014
rhumerus 26.0439 4.2479 -81.8554
rradius 23.6148
rwrist 12.0011
rhand -66.7372 110.993
rfingers 7.12502
rthumb -38.5389 -583.357
lclavicle 5.1684e-015 3.51849e-014
lhumerus 58.4444 -43.2913 33.7264
lradius 33.6995
lwrist 41.8241
lhand -34.0218 -380.535
lfingers 7.12502
lthumb -7.20057 369.322
rfemur -58.2221 -57.9874 -4.82247
rtibia 146.818
rfoot -45.7429 15.6831
rtoes -32.1798
lfemur -61.6933 63.3013 24.9314
ltibia 149.904
lfoot -312.655 -55.3632
ltoes 35.8101
1390
root 12.6182 6.88634 25.0076 -166.747 -21.6791 187.699
lowerback 47.5625 7.66599 5.45226
upperback 10.1697 7.6375 -4.94951
thorax -8.78756 2.31389 -11.3575
lowerneck 5.91999 25.6415 25.2168
upperneck -2.43038 37.6687 -26.8088
head 8.14289 18.8362 -6.73667
rclavicle -3.18055e-014 -4.45278e-014
rhumerus 26.2922 4.31497 -81.6342
rradius 23.684
rwrist 11.9216
rhand -66.761 110.231
rfingers 7.12502
rthumb -38.5614 -584.125
lclavicle -3.18055e-014 -4.45278e-014
lhumerus 59.4184 -43.4202 32.1848
lradius 33.9228
lwrist 42.3203
lhand -33.8368 -378.945
lfingers 7.12502
lthumb -7.02199 370.918
rfemur -57.0171 -59.2739 -6.4044
rtibia 146.841
rfoot -46.5161 15.8532
rtoes -32.2844
lfemur -60.767 64.2531 25.7287
ltibia 149.787
lfoot -313.095 -56.0056
ltoes 36.1773
1391
root 12.6435 6.89974 25.0316 -166.778 -21.797 187.413
lowerback 47.8681 7.62312 5.38121
upperback 10.2064 7.53025 -4.89745
thorax -8.85518 2.24752 -11.2283
lowerneck 5.86458 25.6368 25.1766
upperneck -2.44463 37.6647 -26.8854
head 8.15781 18.8318 -6.74683
rclavicle -4.57205e-014 9.16397e-014
rhumerus 26.5488 4.35061 -81.4348
rradius 23.7614
rwrist 11.8656
rhand -66.7871 109.317
rfingers 7.12502
rthumb -38.5861 -585.046
lclavicle -4.57205e-014 9.16397e-014
lhumerus 60.4352 -43.5253 30.5829
lradius 34.1388
lwrist 42.8344
lhand -33.6259 -377.348
lfingers 7.12502
lthumb -6.81841 372.522
rfemur -55.7542 -60.5091 -8.0484
rtibia 146.867
rfoot -47.2536 16.0044
rtoes -32.3603
lfemur -59.8882 65.1228 26.4223
ltibia 149.655
lfoot -313.568 -56.5958
ltoes 36.5429
